_________________________  Visit us at _________________________
  
http://p2pdl.com  ____________________________  http://p2pdl.com


The Tower 2012 BRRip 720p x264 Korean ESubs - PRiSTiNE [P2PDL]

Genre: Action | Drama
Plot: A Christmas Eve party at a luxury residential building 
takes a horrific turn when a fire breaks out.
Director: Ji-hoon Kim
Stars: Mina Cho, Sang-kyung Kim, Sul Kyung-gu
Rated: Not Rated

Info: 
http://www.imdb.com/title/tt2554270/

General
Complete name                  : The Tower 2012 BRRip 720p x264 Korean ESubs - PRiSTiNE.mp4
Format                         : MPEG-4
File size                      : 698 MiB
Duration                       : 2h 1mn
Overall bit rate mode          : Variable
Overall bit rate               : 800 Kbps

Video
Format                         : AVC
Format/Info                    : Advanced Video Codec
Format profile                 : High 10@L4.1
Bit rate                       : 719 Kbps
Width                          : 1 280 pixels
Height                         : 542 pixels
Display aspect ratio           : 2.35:1
Frame rate mode                : Constant
Frame rate                     : 23.976 fps
Bit depth                      : 10 bits
Stream size                    : 626 MiB (90%)
Writing library                : x264 core 130 r2273 b3065e6

Audio
Format                         : AAC
Bit rate mode                  : Variable
Bit rate                       : 80.0 Kbps
Channel(s)                     : 2 channels
Channel positions              : Front: L R
Sampling rate                  : 48.0 KHz / 24.0 KHz
Stream size                    : 69.8 MiB (10%)
Language                       : Korean

Subtitle                       : Yes (English)
Source                         : 720p.BluRay.DTS.x264-EbP (Thanks)

Screenshots:
 
http://www.ultraimg.com/images/VIPxf.jpg 
http://www.ultraimg.com/images/lpP.jpg 
http://www.ultraimg.com/images/2rya3.jpg 
http://www.ultraimg.com/images/tDkcF.jpg 
http://www.ultraimg.com/images/MU6s.jpg 
http://www.ultraimg.com/images/UVWA.jpg 
http://www.ultraimg.com/images/XS3z7.jpg 
http://www.ultraimg.com/images/G7DAF.jpg

----------------------------------------------------------------------------------------------------


Encoded using revolutionary 10bit encoding, which enables us to provide you more crispier 
and sharper images at small sizes, just make sure you follow our instructions without a fault.
Recommend to you to use latest version of VLC player. Install K-Lite Codec Pack or shark007 codecs
in case of any kind of problem in playback (For non-VLC Media Player users). Alternatively, install
Core AVC codecs, the fastest decoder that there is coupled with Community Center Codec Pack and play
on Windows Media Player Classic. Check sample to be sure.
Enjoy!

Encoder Notes:Looking For Early Access To Anything You Can Provide DVDScr, R5, DVDR, BluRay, Direct
Audio, Music Releases and Seedboxes. We require dedicated servers, so as to do more 
and fast releases of movies.
If You Got anything to offer please contact us at "prg@hush.com".

Face book Fan Page:   
http://www.fb.me/p2pdl